<svg width="20" height="20" viewBox="0 0 20 20" fill="none" xmlns="http://www.w3.org/2000/svg">
<path d="M0 5C0 2.23858 2.23858 0 5 0H15C17.7614 0 20 2.23858 20 5V15C20 17.7614 17.7614 20 15 20H5C2.23858 20 0 17.7614 0 15V5Z" fill="#9BEE68"/>
<path opacity="0.25" d="M15.6552 6.88698L10.0999 10.1L4.54468 6.88698C4.65872 6.68954 4.82138 6.52456 5.01718 6.40773L9.42493 3.86298C9.84343 3.62673 10.3564 3.62673 10.7749 3.86298L15.1827 6.40773C15.3784 6.5245 15.5411 6.68988 15.6552 6.88698Z" fill="#2E7400"/>
<path opacity="0.5" d="M10.1 10.1V16.5125C9.88723 16.5121 9.67724 16.4637 9.4858 16.3707L5.03755 13.799C4.83266 13.6804 4.66249 13.5102 4.54403 13.3053C4.42558 13.1003 4.363 12.8679 4.36255 12.6312V7.56871C4.36366 7.32957 4.42643 7.09476 4.5448 6.88696L10.1 10.1Z" fill="#2E7400"/>
<path d="M15.8376 7.56871V12.6312C15.8372 12.8679 15.7746 13.1003 15.6561 13.3053C15.5377 13.5102 15.3675 13.6804 15.1626 13.799L10.6941 16.3775C10.5085 16.4652 10.3053 16.5111 10.1001 16.5125V10.1L15.6553 6.88696C15.7735 7.09486 15.8362 7.32976 15.8376 7.56871Z" fill="#2E7400"/>
</svg>
